<svg height="24" viewBox="0 0 24 24" width="24" xmlns="http://www.w3.org/2000/svg"><g fill="#141414" fill-rule="nonzero"><path d="m10.5 1h3c.2761424 0 .5-.22385762.5-.5 0-.27614237-.2238576-.5-.5-.5h-3c-.2761424 0-.5.22385763-.5.5 0 .27614238.2238576.5.5.5z"/><path d="m10.5 24h3c.2761424 0 .5-.2238576.5-.5s-.2238576-.5-.5-.5h-3c-.2761424 0-.5.2238576-.5.5s.2238576.5.5.5z"/><path d="m19.1464466 17.8535534c-.0937682-.0937682-.1464466-.2209452-.1464466-.3535534v-7.5c0-3.86599325-3.1340068-7-7-7-3.86599325 0-7 3.13400675-7 7v7.5c0 .1326082-.05267842.2597852-.14644661.3535534l-3.14644661 3.1464466h20.58578642zm-15.1464466-.5606602v-7.2928932c0-4.418278 3.581722-8 8-8s8 3.581722 8 8v7.2928932l3.8535534 3.8535534c.3149824.3149824.091899.8535534-.3535534.8535534h-23c-.44545243 0-.66853582-.538571-.35355339-.8535534z"/></g></svg>